<?xml version="1.0" encoding="UTF-8" standalone="no"?>
<!DOCTYPE svg PUBLIC "-//W3C//DTD SVG 1.1//EN"
 "http://www.w3.org/Graphics/SVG/1.1/DTD/svg11.dtd">
<!-- Generated by graphviz version 2.40.1 (20161225.0304)
 -->
<!-- Title: gocallvis Pages: 1 -->
<svg width="535pt" height="830pt"
 viewBox="0.00 0.00 535.14 829.80" xmlns="http://www.w3.org/2000/svg" xmlns:xlink="http://www.w3.org/1999/xlink">
<g id="graph0" class="graph" transform="scale(1 1) rotate(0) translate(0 829.8)">
<title>gocallvis</title>
<polygon fill="#d3d3d3" stroke="transparent" points="0,0 0,-829.8 535.1446,-829.8 535.1446,0 0,0"/>
<text text-anchor="middle" x="38.3394" y="-8.2" font-family="Arial" font-size="14.00" fill="#000000">fabricGen</text>
<g id="clust1" class="cluster">
<title>cluster_focus</title>
<polygon fill="#e6ecfa" stroke="#000000" stroke-width=".5" points="8,-32.8 8,-821.8 527.1446,-821.8 527.1446,-32.8 8,-32.8"/>
<text text-anchor="middle" x="267.5723" y="-801.6" font-family="Arial" font-size="18.00" fill="#000000">main</text>
</g>
<g id="clust6" class="cluster">
<title>cluster_os</title>
<g id="a_clust6"><a xlink:href="/?f=os" xlink:title="package: os">
<polygon fill="#ffffe0" stroke="#000000" stroke-width=".8" points="175.1855,-40.8 175.1855,-119.8 245.1855,-119.8 245.1855,-40.8 175.1855,-40.8"/>
<text text-anchor="middle" x="210.1855" y="-101.4" font-family="Tahoma bold" font-size="16.00" fill="#000000">os</text>
</a>
</g>
</g>
<g id="clust5" class="cluster">
<title>cluster_log</title>
<g id="a_clust5"><a xlink:href="/?f=log" xlink:title="package: log">
<polygon fill="#ffffe0" stroke="#000000" stroke-width=".8" points="395.7578,-268.8 395.7578,-347.8 465.7578,-347.8 465.7578,-268.8 395.7578,-268.8"/>
<text text-anchor="middle" x="430.7578" y="-329.4" font-family="Tahoma bold" font-size="16.00" fill="#000000">log</text>
</a>
</g>
</g>
<g id="clust4" class="cluster">
<title>cluster_github.com/urfave/cli</title>
<g id="a_clust4"><a xlink:href="/?f=github.com/urfave/cli" xlink:title="package: github.com/urfave/cli">
<polygon fill="#ffffe0" stroke="#000000" stroke-width=".8" points="135,-355.8 135,-739.8 482.0222,-739.8 482.0222,-355.8 135,-355.8"/>
<text text-anchor="middle" x="308.5111" y="-721.4" font-family="Tahoma bold" font-size="16.00" fill="#000000">cli</text>
</a>
</g>
</g>
<g id="clust3" class="cluster">
<title>cluster_fmt</title>
<g id="a_clust3"><a xlink:href="/?f=fmt" xlink:title="package: fmt">
<polygon fill="#ffffe0" stroke="#000000" stroke-width=".8" points="175.1855,-127.8 175.1855,-267.8 245.1855,-267.8 245.1855,-127.8 175.1855,-127.8"/>
<text text-anchor="middle" x="210.1855" y="-249.4" font-family="Tahoma bold" font-size="16.00" fill="#000000">fmt</text>
</a>
</g>
</g>
<g id="clust2" class="cluster">
<title>cluster_fabricGen/generator</title>
<g id="a_clust2"><a xlink:href="/?f=fabricGen/generator" xlink:title="package: fabricGen/generator">
<polygon fill="#ffffe0" stroke="#000000" stroke-width=".8" points="342.371,-59.8 342.371,-260.8 519.1446,-260.8 519.1446,-59.8 342.371,-59.8"/>
<text text-anchor="middle" x="430.7578" y="-242.4" font-family="Tahoma bold" font-size="16.00" fill="#000000">generator</text>
</a>
</g>
</g>
<!-- fabricGen.init -->
<g id="node1" class="node">
<title>fabricGen.init</title>
<g id="a_node1"><a xlink:title="fabricGen.init | defined in .:0&#10;at main.go:29: calling [github.com/urfave/cli.NewApp]&#10;at .:0: calling [fabricGen.init#1]">
<path fill="#add8e6" stroke="#000000" stroke-width=".5" d="M58,-743.8C58,-743.8 28,-743.8 28,-743.8 22,-743.8 16,-737.8 16,-731.8 16,-731.8 16,-719.8 16,-719.8 16,-713.8 22,-707.8 28,-707.8 28,-707.8 58,-707.8 58,-707.8 64,-707.8 70,-713.8 70,-719.8 70,-719.8 70,-731.8 70,-731.8 70,-737.8 64,-743.8 58,-743.8"/>
<text text-anchor="middle" x="43" y="-721.6" font-family="Verdana" font-size="14.00" fill="#000000">init</text>
</a>
</g>
</g>
<!-- fabricGen.init#1 -->
<g id="node2" class="node">
<title>fabricGen.init#1</title>
<g id="a_node2"><a xlink:title="fabricGen.init#1 | defined in main.go:44">
<path fill="#add8e6" stroke="#000000" stroke-width=".5" d="M225.1855,-783.8C225.1855,-783.8 195.1855,-783.8 195.1855,-783.8 189.1855,-783.8 183.1855,-777.8 183.1855,-771.8 183.1855,-771.8 183.1855,-759.8 183.1855,-759.8 183.1855,-753.8 189.1855,-747.8 195.1855,-747.8 195.1855,-747.8 225.1855,-747.8 225.1855,-747.8 231.1855,-747.8 237.1855,-753.8 237.1855,-759.8 237.1855,-759.8 237.1855,-771.8 237.1855,-771.8 237.1855,-777.8 231.1855,-783.8 225.1855,-783.8"/>
<text text-anchor="middle" x="210.1855" y="-761.6" font-family="Verdana" font-size="14.00" fill="#000000">init#1</text>
</a>
</g>
</g>
<!-- fabricGen.init&#45;&gt;fabricGen.init#1 -->
<g id="edge10" class="edge">
<title>fabricGen.init&#45;&gt;fabricGen.init#1</title>
<g id="a_edge10"><a xlink:title="at .:0: calling [fabricGen.init#1]">
<path fill="none" stroke="#000000" d="M70.2333,-732.3157C98.165,-738.9985 141.8109,-749.441 172.931,-756.8867"/>
<polygon fill="#000000" stroke="#000000" points="172.4239,-760.364 182.9638,-759.2871 174.0527,-753.5562 172.4239,-760.364"/>
</a>
</g>
</g>
<!-- github.com/urfave/cli.NewApp -->
<g id="node11" class="node">
<title>github.com/urfave/cli.NewApp</title>
<g id="a_node11"><a xlink:title="github.com/urfave/cli.NewApp | defined in app.go:118">
<path fill="#ffe4b5" stroke="#000000" stroke-width="1.5" d="M227.2217,-704.8C227.2217,-704.8 193.1493,-704.8 193.1493,-704.8 187.1493,-704.8 181.1493,-698.8 181.1493,-692.8 181.1493,-692.8 181.1493,-680.8 181.1493,-680.8 181.1493,-674.8 187.1493,-668.8 193.1493,-668.8 193.1493,-668.8 227.2217,-668.8 227.2217,-668.8 233.2217,-668.8 239.2217,-674.8 239.2217,-680.8 239.2217,-680.8 239.2217,-692.8 239.2217,-692.8 239.2217,-698.8 233.2217,-704.8 227.2217,-704.8"/>
<text text-anchor="middle" x="210.1855" y="-682.6" font-family="Verdana" font-size="14.00" fill="#000000">NewApp</text>
</a>
</g>
</g>
<!-- fabricGen.init&#45;&gt;github.com/urfave/cli.NewApp -->
<g id="edge9" class="edge">
<title>fabricGen.init&#45;&gt;github.com/urfave/cli.NewApp</title>
<g id="a_edge9"><a xlink:title="at main.go:29: calling [github.com/urfave/cli.NewApp]">
<path fill="none" stroke="#8b4513" d="M70.2333,-719.4472C97.5831,-713.0672 139.9992,-703.1726 170.97,-695.948"/>
<polygon fill="#8b4513" stroke="#8b4513" points="172.0526,-699.2894 180.9961,-693.6091 170.4624,-692.4725 172.0526,-699.2894"/>
</a>
</g>
</g>
<!-- fabricGen.starter -->
<g id="node3" class="node">
<title>fabricGen.starter</title>
<g id="a_node3"><a xlink:title="fabricGen.starter | defined in main.go:62&#10;at main.go:64: calling [fmt.Errorf]&#10;at main.go:66: calling [(*github.com/urfave/cli.Context).StringSlice]&#10;at main.go:63: calling [(*github.com/urfave/cli.Context).Args]&#10;at main.go:66: calling [fabricGen.deploy]&#10;at main.go:66: calling [(*github.com/urfave/cli.Context).String]&#10;at main.go:66: calling [(*github.com/urfave/cli.Context).String]&#10;at main.go:66: calling [(*github.com/urfave/cli.Context).String]&#10;at main.go:66: calling [(*github.com/urfave/cli.Context).String]&#10;at main.go:66: calling [(*github.com/urfave/cli.Context).String]&#10;at main.go:66: calling [(*github.com/urfave/cli.Context).String]&#10;at main.go:66: calling [(*github.com/urfave/cli.Context).String]&#10;at main.go:66: calling [(*github.com/urfave/cli.Context).Int]&#10;at main.go:66: calling [(*github.com/urfave/cli.Context).Int]">
<path fill="#add8e6" stroke="#000000" stroke-width=".5" d="M58,-460.8C58,-460.8 28,-460.8 28,-460.8 22,-460.8 16,-454.8 16,-448.8 16,-448.8 16,-436.8 16,-436.8 16,-430.8 22,-424.8 28,-424.8 28,-424.8 58,-424.8 58,-424.8 64,-424.8 70,-430.8 70,-436.8 70,-436.8 70,-448.8 70,-448.8 70,-454.8 64,-460.8 58,-460.8"/>
<text text-anchor="middle" x="43" y="-438.6" font-family="Verdana" font-size="14.00" fill="#000000">starter</text>
</a>
</g>
</g>
<!-- fabricGen.deploy -->
<g id="node4" class="node">
<title>fabricGen.deploy</title>
<g id="a_node4"><a xlink:title="fabricGen.deploy | defined in main.go:70&#10;at main.go:71: calling [fabricGen/generator.NewBatchSize]&#10;at main.go:73: calling [(*fabricGen/generator.Config).LifecycleDeploy]&#10;at main.go:75: calling [log.Println]&#10;at main.go:72: calling [fabricGen/generator.NewConfigtx]">
<path fill="#add8e6" stroke="#000000" stroke-width=".5" d="M225.1855,-311.8C225.1855,-311.8 195.1855,-311.8 195.1855,-311.8 189.1855,-311.8 183.1855,-305.8 183.1855,-299.8 183.1855,-299.8 183.1855,-287.8 183.1855,-287.8 183.1855,-281.8 189.1855,-275.8 195.1855,-275.8 195.1855,-275.8 225.1855,-275.8 225.1855,-275.8 231.1855,-275.8 237.1855,-281.8 237.1855,-287.8 237.1855,-287.8 237.1855,-299.8 237.1855,-299.8 237.1855,-305.8 231.1855,-311.8 225.1855,-311.8"/>
<text text-anchor="middle" x="210.1855" y="-289.6" font-family="Verdana" font-size="14.00" fill="#000000">deploy</text>
</a>
</g>
</g>
<!-- fabricGen.starter&#45;&gt;fabricGen.deploy -->
<g id="edge12" class="edge">
<title>fabricGen.starter&#45;&gt;fabricGen.deploy</title>
<g id="a_edge12"><a xlink:title="at main.go:66: calling [fabricGen.deploy]">
<path fill="none" stroke="#000000" d="M48.666,-424.6516C57.2403,-400.038 75.7936,-356.2335 106,-330.8 125.14,-314.6843 151.8016,-305.3873 173.3621,-300.1434"/>
<polygon fill="#000000" stroke="#000000" points="174.1787,-303.5473 183.1717,-297.9459 172.6485,-296.7166 174.1787,-303.5473"/>
</a>
</g>
</g>
<!-- fmt.Errorf -->
<g id="node9" class="node">
<title>fmt.Errorf</title>
<g id="a_node9"><a xlink:title="fmt.Errorf | defined in errors.go:17">
<path fill="#ffe4b5" stroke="#000000" stroke-width="1.5" d="M225.1855,-232.8C225.1855,-232.8 195.1855,-232.8 195.1855,-232.8 189.1855,-232.8 183.1855,-226.8 183.1855,-220.8 183.1855,-220.8 183.1855,-208.8 183.1855,-208.8 183.1855,-202.8 189.1855,-196.8 195.1855,-196.8 195.1855,-196.8 225.1855,-196.8 225.1855,-196.8 231.1855,-196.8 237.1855,-202.8 237.1855,-208.8 237.1855,-208.8 237.1855,-220.8 237.1855,-220.8 237.1855,-226.8 231.1855,-232.8 225.1855,-232.8"/>
<text text-anchor="middle" x="210.1855" y="-210.6" font-family="Verdana" font-size="14.00" fill="#000000">Errorf</text>
</a>
</g>
</g>
<!-- fabricGen.starter&#45;&gt;fmt.Errorf -->
<g id="edge1" class="edge">
<title>fabricGen.starter&#45;&gt;fmt.Errorf</title>
<g id="a_edge1"><a xlink:title="at main.go:64: calling [fmt.Errorf]">
<path fill="none" stroke="#8b4513" d="M45.864,-424.6362C53.145,-384.5888 76.1356,-288.1908 135,-236.8 145.6135,-227.534 159.949,-222.1647 173.2562,-219.0557"/>
<polygon fill="#8b4513" stroke="#8b4513" points="174.0257,-222.4713 183.1532,-217.0917 172.6632,-215.6052 174.0257,-222.4713"/>
</a>
</g>
</g>
<!-- (*github.com/urfave/cli.Context).Args -->
<g id="node12" class="node">
<title>(*github.com/urfave/cli.Context).Args</title>
<g id="a_node12"><a xlink:title="(*github.com/urfave/cli.Context).Args | defined in context.go:186">
<path fill="#ffe4b5" stroke="#000000" stroke-width="1.5" d="M248.0516,-460.8C248.0516,-460.8 172.3194,-460.8 172.3194,-460.8 166.3194,-460.8 160.3194,-454.8 160.3194,-448.8 160.3194,-448.8 160.3194,-436.8 160.3194,-436.8 160.3194,-430.8 166.3194,-424.8 172.3194,-424.8 172.3194,-424.8 248.0516,-424.8 248.0516,-424.8 254.0516,-424.8 260.0516,-430.8 260.0516,-436.8 260.0516,-436.8 260.0516,-448.8 260.0516,-448.8 260.0516,-454.8 254.0516,-460.8 248.0516,-460.8"/>
<text text-anchor="middle" x="210.1855" y="-438.6" font-family="Verdana" font-size="14.00" fill="#000000">(*Context).Args</text>
</a>
</g>
</g>
<!-- fabricGen.starter&#45;&gt;(*github.com/urfave/cli.Context).Args -->
<g id="edge11" class="edge">
<title>fabricGen.starter&#45;&gt;(*github.com/urfave/cli.Context).Args</title>
<g id="a_edge11"><a xlink:title="at main.go:63: calling [(*github.com/urfave/cli.Context).Args]">
<path fill="none" stroke="#8b4513" d="M70.2333,-442.8C91.8114,-442.8 122.7676,-442.8 150.0822,-442.8"/>
<polygon fill="#8b4513" stroke="#8b4513" points="150.3454,-446.3001 160.3454,-442.8 150.3453,-439.3001 150.3454,-446.3001"/>
</a>
</g>
</g>
<!-- (*github.com/urfave/cli.Context).String -->
<g id="node13" class="node">
<title>(*github.com/urfave/cli.Context).String</title>
<g id="a_node13"><a xlink:title="(*github.com/urfave/cli.Context).String | defined in flag_string.go:75">
<path fill="#ffe4b5" stroke="#000000" stroke-width="1.5" d="M251.5642,-521.8C251.5642,-521.8 168.8068,-521.8 168.8068,-521.8 162.8068,-521.8 156.8068,-515.8 156.8068,-509.8 156.8068,-509.8 156.8068,-497.8 156.8068,-497.8 156.8068,-491.8 162.8068,-485.8 168.8068,-485.8 168.8068,-485.8 251.5642,-485.8 251.5642,-485.8 257.5642,-485.8 263.5642,-491.8 263.5642,-497.8 263.5642,-497.8 263.5642,-509.8 263.5642,-509.8 263.5642,-515.8 257.5642,-521.8 251.5642,-521.8"/>
<text text-anchor="middle" x="210.1855" y="-499.6" font-family="Verdana" font-size="14.00" fill="#000000">(*Context).String</text>
</a>
</g>
</g>
<!-- fabricGen.starter&#45;&gt;(*github.com/urfave/cli.Context).String -->
<g id="edge14" class="edge">
<title>fabricGen.starter&#45;&gt;(*github.com/urfave/cli.Context).String</title>
<g id="a_edge14"><a xlink:title="at main.go:66: calling [(*github.com/urfave/cli.Context).String]&#10;at main.go:66: calling [(*github.com/urfave/cli.Context).String]&#10;at main.go:66: calling [(*github.com/urfave/cli.Context).String]&#10;at main.go:66: calling [(*github.com/urfave/cli.Context).String]&#10;at main.go:66: calling [(*github.com/urfave/cli.Context).String]&#10;at main.go:66: calling [(*github.com/urfave/cli.Context).String]&#10;at main.go:66: calling [(*github.com/urfave/cli.Context).String]">
<path fill="none" stroke="#8b4513" d="M70.2333,-452.7365C92.0842,-460.7091 123.5521,-472.1906 151.1167,-482.2479"/>
<polygon fill="#8b4513" stroke="#8b4513" points="150.0878,-485.5982 160.6818,-485.7379 152.4872,-479.0222 150.0878,-485.5982"/>
</a>
</g>
</g>
<!-- (*github.com/urfave/cli.Context).Int -->
<g id="node14" class="node">
<title>(*github.com/urfave/cli.Context).Int</title>
<g id="a_node14"><a xlink:title="(*github.com/urfave/cli.Context).Int | defined in flag_int.go:82">
<path fill="#ffe4b5" stroke="#000000" stroke-width="1.5" d="M241.8908,-582.8C241.8908,-582.8 178.4802,-582.8 178.4802,-582.8 172.4802,-582.8 166.4802,-576.8 166.4802,-570.8 166.4802,-570.8 166.4802,-558.8 166.4802,-558.8 166.4802,-552.8 172.4802,-546.8 178.4802,-546.8 178.4802,-546.8 241.8908,-546.8 241.8908,-546.8 247.8908,-546.8 253.8908,-552.8 253.8908,-558.8 253.8908,-558.8 253.8908,-570.8 253.8908,-570.8 253.8908,-576.8 247.8908,-582.8 241.8908,-582.8"/>
<text text-anchor="middle" x="210.1855" y="-560.6" font-family="Verdana" font-size="14.00" fill="#000000">(*Context).Int</text>
</a>
</g>
</g>
<!-- fabricGen.starter&#45;&gt;(*github.com/urfave/cli.Context).Int -->
<g id="edge15" class="edge">
<title>fabricGen.starter&#45;&gt;(*github.com/urfave/cli.Context).Int</title>
<g id="a_edge15"><a xlink:title="at main.go:66: calling [(*github.com/urfave/cli.Context).Int]&#10;at main.go:66: calling [(*github.com/urfave/cli.Context).Int]">
<path fill="none" stroke="#8b4513" d="M57.2051,-460.9024C73.9462,-481.2198 103.4991,-514.0477 135,-534.8 141.7583,-539.2522 149.2805,-543.2195 156.8809,-546.6946"/>
<polygon fill="#8b4513" stroke="#8b4513" points="155.576,-549.9434 166.1446,-550.689 158.3477,-543.5155 155.576,-549.9434"/>
</a>
</g>
</g>
<!-- (*github.com/urfave/cli.Context).StringSlice -->
<g id="node15" class="node">
<title>(*github.com/urfave/cli.Context).StringSlice</title>
<g id="a_node15"><a xlink:title="(*github.com/urfave/cli.Context).StringSlice | defined in flag_string_slice.go:115">
<path fill="#ffe4b5" stroke="#000000" stroke-width="1.5" d="M265.557,-643.8C265.557,-643.8 154.814,-643.8 154.814,-643.8 148.814,-643.8 142.814,-637.8 142.814,-631.8 142.814,-631.8 142.814,-619.8 142.814,-619.8 142.814,-613.8 148.814,-607.8 154.814,-607.8 154.814,-607.8 265.557,-607.8 265.557,-607.8 271.557,-607.8 277.557,-613.8 277.557,-619.8 277.557,-619.8 277.557,-631.8 277.557,-631.8 277.557,-637.8 271.557,-643.8 265.557,-643.8"/>
<text text-anchor="middle" x="210.1855" y="-621.6" font-family="Verdana" font-size="14.00" fill="#000000">(*Context).StringSlice</text>
</a>
</g>
</g>
<!-- fabricGen.starter&#45;&gt;(*github.com/urfave/cli.Context).StringSlice -->
<g id="edge4" class="edge">
<title>fabricGen.starter&#45;&gt;(*github.com/urfave/cli.Context).StringSlice</title>
<g id="a_edge4"><a xlink:title="at main.go:66: calling [(*github.com/urfave/cli.Context).StringSlice]">
<path fill="none" stroke="#8b4513" d="M49.4349,-460.9578C61.492,-492.5461 90.367,-557.8588 135,-595.8 137.8442,-598.2178 140.9077,-600.4569 144.1143,-602.5282"/>
<polygon fill="#8b4513" stroke="#8b4513" points="142.4799,-605.6266 152.8842,-607.6272 145.9984,-599.575 142.4799,-605.6266"/>
</a>
</g>
</g>
<!-- fabricGen/generator.NewBatchSize -->
<g id="node6" class="node">
<title>fabricGen/generator.NewBatchSize</title>
<g id="a_node6"><a xlink:title="fabricGen/generator.NewBatchSize | defined in config.go:32">
<path fill="#ffe4b5" stroke="#000000" stroke-width="1.5" d="M464.4446,-103.8C464.4446,-103.8 397.071,-103.8 397.071,-103.8 391.071,-103.8 385.071,-97.8 385.071,-91.8 385.071,-91.8 385.071,-79.8 385.071,-79.8 385.071,-73.8 391.071,-67.8 397.071,-67.8 397.071,-67.8 464.4446,-67.8 464.4446,-67.8 470.4446,-67.8 476.4446,-73.8 476.4446,-79.8 476.4446,-79.8 476.4446,-91.8 476.4446,-91.8 476.4446,-97.8 470.4446,-103.8 464.4446,-103.8"/>
<text text-anchor="middle" x="430.7578" y="-81.6" font-family="Verdana" font-size="14.00" fill="#000000">NewBatchSize</text>
</a>
</g>
</g>
<!-- fabricGen.deploy&#45;&gt;fabricGen/generator.NewBatchSize -->
<g id="edge5" class="edge">
<title>fabricGen.deploy&#45;&gt;fabricGen/generator.NewBatchSize</title>
<g id="a_edge5"><a xlink:title="at main.go:71: calling [fabricGen/generator.NewBatchSize]">
<path fill="none" stroke="#8b4513" d="M237.4242,-290.2993C250.8486,-287.335 266.455,-281.8695 277.371,-271.8 332.2787,-221.1503 287.9951,-168.0201 342.371,-116.8 351.6176,-108.09 363.4512,-101.8091 375.4318,-97.2859"/>
<polygon fill="#8b4513" stroke="#8b4513" points="376.6851,-100.5566 385.025,-94.0224 374.4306,-93.9296 376.6851,-100.5566"/>
</a>
</g>
</g>
<!-- fabricGen/generator.NewConfigtx -->
<g id="node7" class="node">
<title>fabricGen/generator.NewConfigtx</title>
<g id="a_node7"><a xlink:title="fabricGen/generator.NewConfigtx | defined in config.go:36">
<path fill="#ffe4b5" stroke="#000000" stroke-width="1.5" d="M460.9643,-164.8C460.9643,-164.8 400.5513,-164.8 400.5513,-164.8 394.5513,-164.8 388.5513,-158.8 388.5513,-152.8 388.5513,-152.8 388.5513,-140.8 388.5513,-140.8 388.5513,-134.8 394.5513,-128.8 400.5513,-128.8 400.5513,-128.8 460.9643,-128.8 460.9643,-128.8 466.9643,-128.8 472.9643,-134.8 472.9643,-140.8 472.9643,-140.8 472.9643,-152.8 472.9643,-152.8 472.9643,-158.8 466.9643,-164.8 460.9643,-164.8"/>
<text text-anchor="middle" x="430.7578" y="-142.6" font-family="Verdana" font-size="14.00" fill="#000000">NewConfigtx</text>
</a>
</g>
</g>
<!-- fabricGen.deploy&#45;&gt;fabricGen/generator.NewConfigtx -->
<g id="edge16" class="edge">
<title>fabricGen.deploy&#45;&gt;fabricGen/generator.NewConfigtx</title>
<g id="a_edge16"><a xlink:title="at main.go:72: calling [fabricGen/generator.NewConfigtx]">
<path fill="none" stroke="#8b4513" d="M237.2585,-289.1471C250.3253,-285.9035 265.6658,-280.5356 277.371,-271.8 318.0778,-241.4207 301.9835,-208.6026 342.371,-177.8 353.0867,-169.6274 366.1275,-163.4973 378.8649,-158.9439"/>
<polygon fill="#8b4513" stroke="#8b4513" points="380.1044,-162.2206 388.5026,-155.7615 377.9095,-155.5736 380.1044,-162.2206"/>
</a>
</g>
</g>
<!-- (*fabricGen/generator.Config).LifecycleDeploy -->
<g id="node8" class="node">
<title>(*fabricGen/generator.Config).LifecycleDeploy</title>
<g id="a_node8"><a xlink:title="(*fabricGen/generator.Config).LifecycleDeploy | defined in lifecycle.go:14">
<path fill="#ffe4b5" stroke="#000000" stroke-width="1.5" d="M499.0316,-225.8C499.0316,-225.8 362.484,-225.8 362.484,-225.8 356.484,-225.8 350.484,-219.8 350.484,-213.8 350.484,-213.8 350.484,-201.8 350.484,-201.8 350.484,-195.8 356.484,-189.8 362.484,-189.8 362.484,-189.8 499.0316,-189.8 499.0316,-189.8 505.0316,-189.8 511.0316,-195.8 511.0316,-201.8 511.0316,-201.8 511.0316,-213.8 511.0316,-213.8 511.0316,-219.8 505.0316,-225.8 499.0316,-225.8"/>
<text text-anchor="middle" x="430.7578" y="-203.6" font-family="Verdana" font-size="14.00" fill="#000000">(*Config).LifecycleDeploy</text>
</a>
</g>
</g>
<!-- fabricGen.deploy&#45;&gt;(*fabricGen/generator.Config).LifecycleDeploy -->
<g id="edge6" class="edge">
<title>fabricGen.deploy&#45;&gt;(*fabricGen/generator.Config).LifecycleDeploy</title>
<g id="a_edge6"><a xlink:title="at main.go:73: calling [(*fabricGen/generator.Config).LifecycleDeploy]">
<path fill="none" stroke="#8b4513" d="M237.487,-285.3984C249.757,-281.4848 264.3708,-276.632 277.371,-271.8 312.1489,-258.8734 350.6876,-242.786 380.4352,-229.9743"/>
<polygon fill="#8b4513" stroke="#8b4513" points="381.9795,-233.1198 389.7687,-225.9379 379.2009,-226.6949 381.9795,-233.1198"/>
</a>
</g>
</g>
<!-- log.Println -->
<g id="node18" class="node">
<title>log.Println</title>
<g id="a_node18"><a xlink:title="log.Println | defined in log.go:356">
<path fill="#ffe4b5" stroke="#000000" stroke-width="1.5" d="M445.7578,-312.8C445.7578,-312.8 415.7578,-312.8 415.7578,-312.8 409.7578,-312.8 403.7578,-306.8 403.7578,-300.8 403.7578,-300.8 403.7578,-288.8 403.7578,-288.8 403.7578,-282.8 409.7578,-276.8 415.7578,-276.8 415.7578,-276.8 445.7578,-276.8 445.7578,-276.8 451.7578,-276.8 457.7578,-282.8 457.7578,-288.8 457.7578,-288.8 457.7578,-300.8 457.7578,-300.8 457.7578,-306.8 451.7578,-312.8 445.7578,-312.8"/>
<text text-anchor="middle" x="430.7578" y="-290.6" font-family="Verdana" font-size="14.00" fill="#000000">Println</text>
</a>
</g>
</g>
<!-- fabricGen.deploy&#45;&gt;log.Println -->
<g id="edge7" class="edge">
<title>fabricGen.deploy&#45;&gt;log.Println</title>
<g id="a_edge7"><a xlink:title="at main.go:75: calling [log.Println]">
<path fill="none" stroke="#8b4513" d="M237.232,-293.9226C276.4238,-294.1003 349.145,-294.43 393.4216,-294.6307"/>
<polygon fill="#8b4513" stroke="#8b4513" points="393.4743,-298.1309 403.4901,-294.6764 393.5061,-291.131 393.4743,-298.1309"/>
</a>
</g>
</g>
<!-- fabricGen.main -->
<g id="node5" class="node">
<title>fabricGen.main</title>
<g id="a_node5"><a xlink:title="fabricGen.main | defined in main.go:55&#10;at main.go:56: calling [(*github.com/urfave/cli.App).Run]&#10;at main.go:58: calling [os.Exit]&#10;at main.go:57: calling [fmt.Fprintln]">
<path fill="#add8e6" stroke="#000000" stroke-width=".5" d="M58,-171.8C58,-171.8 28,-171.8 28,-171.8 22,-171.8 16,-165.8 16,-159.8 16,-159.8 16,-147.8 16,-147.8 16,-141.8 22,-135.8 28,-135.8 28,-135.8 58,-135.8 58,-135.8 64,-135.8 70,-141.8 70,-147.8 70,-147.8 70,-159.8 70,-159.8 70,-165.8 64,-171.8 58,-171.8"/>
<text text-anchor="middle" x="43" y="-149.6" font-family="Verdana" font-size="14.00" fill="#000000">main</text>
</a>
</g>
</g>
<!-- fmt.Fprintln -->
<g id="node10" class="node">
<title>fmt.Fprintln</title>
<g id="a_node10"><a xlink:title="fmt.Fprintln | defined in print.go:262">
<path fill="#ffe4b5" stroke="#000000" stroke-width="1.5" d="M225.1855,-171.8C225.1855,-171.8 195.1855,-171.8 195.1855,-171.8 189.1855,-171.8 183.1855,-165.8 183.1855,-159.8 183.1855,-159.8 183.1855,-147.8 183.1855,-147.8 183.1855,-141.8 189.1855,-135.8 195.1855,-135.8 195.1855,-135.8 225.1855,-135.8 225.1855,-135.8 231.1855,-135.8 237.1855,-141.8 237.1855,-147.8 237.1855,-147.8 237.1855,-159.8 237.1855,-159.8 237.1855,-165.8 231.1855,-171.8 225.1855,-171.8"/>
<text text-anchor="middle" x="210.1855" y="-149.6" font-family="Verdana" font-size="14.00" fill="#000000">Fprintln</text>
</a>
</g>
</g>
<!-- fabricGen.main&#45;&gt;fmt.Fprintln -->
<g id="edge17" class="edge">
<title>fabricGen.main&#45;&gt;fmt.Fprintln</title>
<g id="a_edge17"><a xlink:title="at main.go:57: calling [fmt.Fprintln]">
<path fill="none" stroke="#8b4513" d="M70.2333,-153.8C98.165,-153.8 141.8109,-153.8 172.931,-153.8"/>
<polygon fill="#8b4513" stroke="#8b4513" points="172.9639,-157.3001 182.9638,-153.8 172.9638,-150.3001 172.9639,-157.3001"/>
</a>
</g>
</g>
<!-- (*github.com/urfave/cli.App).Run -->
<g id="node17" class="node">
<title>(*github.com/urfave/cli.App).Run</title>
<g id="a_node17"><a xlink:title="(*github.com/urfave/cli.App).Run | defined in app.go:194&#10;at app.go:286: calling [github.com/urfave/cli.HandleAction]">
<path fill="#ffe4b5" stroke="#000000" stroke-width="1.5" d="M235.9504,-399.8C235.9504,-399.8 184.4206,-399.8 184.4206,-399.8 178.4206,-399.8 172.4206,-393.8 172.4206,-387.8 172.4206,-387.8 172.4206,-375.8 172.4206,-375.8 172.4206,-369.8 178.4206,-363.8 184.4206,-363.8 184.4206,-363.8 235.9504,-363.8 235.9504,-363.8 241.9504,-363.8 247.9504,-369.8 247.9504,-375.8 247.9504,-375.8 247.9504,-387.8 247.9504,-387.8 247.9504,-393.8 241.9504,-399.8 235.9504,-399.8"/>
<text text-anchor="middle" x="210.1855" y="-377.6" font-family="Verdana" font-size="14.00" fill="#000000">(*App).Run</text>
</a>
</g>
</g>
<!-- fabricGen.main&#45;&gt;(*github.com/urfave/cli.App).Run -->
<g id="edge3" class="edge">
<title>fabricGen.main&#45;&gt;(*github.com/urfave/cli.App).Run</title>
<g id="a_edge3"><a xlink:title="at main.go:56: calling [(*github.com/urfave/cli.App).Run]">
<path fill="none" stroke="#8b4513" d="M45.864,-171.9638C53.145,-212.0112 76.1356,-308.4092 135,-359.8 142.7608,-366.5755 152.5117,-371.2675 162.3955,-374.5157"/>
<polygon fill="#8b4513" stroke="#8b4513" points="161.6795,-377.9505 172.2548,-377.3065 163.5861,-371.2152 161.6795,-377.9505"/>
</a>
</g>
</g>
<!-- os.Exit -->
<g id="node19" class="node">
<title>os.Exit</title>
<g id="a_node19"><a xlink:title="os.Exit | defined in proc.go:62">
<path fill="#ffe4b5" stroke="#000000" stroke-width="1.5" d="M225.1855,-84.8C225.1855,-84.8 195.1855,-84.8 195.1855,-84.8 189.1855,-84.8 183.1855,-78.8 183.1855,-72.8 183.1855,-72.8 183.1855,-60.8 183.1855,-60.8 183.1855,-54.8 189.1855,-48.8 195.1855,-48.8 195.1855,-48.8 225.1855,-48.8 225.1855,-48.8 231.1855,-48.8 237.1855,-54.8 237.1855,-60.8 237.1855,-60.8 237.1855,-72.8 237.1855,-72.8 237.1855,-78.8 231.1855,-84.8 225.1855,-84.8"/>
<text text-anchor="middle" x="210.1855" y="-62.6" font-family="Verdana" font-size="14.00" fill="#000000">Exit</text>
</a>
</g>
</g>
<!-- fabricGen.main&#45;&gt;os.Exit -->
<g id="edge8" class="edge">
<title>fabricGen.main&#45;&gt;os.Exit</title>
<g id="a_edge8"><a xlink:title="at main.go:58: calling [os.Exit]">
<path fill="none" stroke="#8b4513" d="M70.2333,-139.6283C98.4079,-124.9668 142.5712,-101.9851 173.74,-85.7655"/>
<polygon fill="#8b4513" stroke="#8b4513" points="175.7087,-88.6866 182.9638,-80.9656 172.4773,-82.4771 175.7087,-88.6866"/>
</a>
</g>
</g>
<!-- github.com/urfave/cli.HandleAction -->
<g id="node16" class="node">
<title>github.com/urfave/cli.HandleAction</title>
<g id="a_node16"><a xlink:title="github.com/urfave/cli.HandleAction | defined in app.go:519&#10;at app.go:524: calling [fabricGen.starter]">
<path fill="#ffe4b5" stroke="#000000" stroke-width="1.5" d="M461.7879,-399.8C461.7879,-399.8 399.7277,-399.8 399.7277,-399.8 393.7277,-399.8 387.7277,-393.8 387.7277,-387.8 387.7277,-387.8 387.7277,-375.8 387.7277,-375.8 387.7277,-369.8 393.7277,-363.8 399.7277,-363.8 399.7277,-363.8 461.7879,-363.8 461.7879,-363.8 467.7879,-363.8 473.7879,-369.8 473.7879,-375.8 473.7879,-375.8 473.7879,-387.8 473.7879,-387.8 473.7879,-393.8 467.7879,-399.8 461.7879,-399.8"/>
<text text-anchor="middle" x="430.7578" y="-377.6" font-family="Verdana" font-size="14.00" fill="#000000">HandleAction</text>
</a>
</g>
</g>
<!-- github.com/urfave/cli.HandleAction&#45;&gt;fabricGen.starter -->
<g id="edge13" class="edge">
<title>github.com/urfave/cli.HandleAction&#45;&gt;fabricGen.starter</title>
<g id="a_edge13"><a xlink:title="at app.go:524: calling [fabricGen.starter]">
<path fill="none" stroke="#8b4513" stroke-dasharray="5,2" d="M387.4506,-371.0077C356.9064,-363.9687 314.9118,-355.4367 277.371,-351.8 214.3898,-345.6987 193.5253,-327.7451 135,-351.8 103.4484,-364.7682 76.9588,-394.3677 60.6267,-416.3066"/>
<polygon fill="#8b4513" stroke="#8b4513" points="57.6719,-414.4205 54.6716,-424.5816 63.3536,-418.5093 57.6719,-414.4205"/>
</a>
</g>
</g>
<!-- (*github.com/urfave/cli.App).Run&#45;&gt;github.com/urfave/cli.HandleAction -->
<g id="edge2" class="edge">
<title>(*github.com/urfave/cli.App).Run&#45;&gt;github.com/urfave/cli.HandleAction</title>
<g id="a_edge2"><a xlink:title="at app.go:286: calling [github.com/urfave/cli.HandleAction]">
<path fill="none" stroke="#8b4513" d="M247.8526,-381.8C283.5075,-381.8 337.3914,-381.8 377.4493,-381.8"/>
<polygon fill="#8b4513" stroke="#8b4513" points="377.5749,-385.3001 387.5749,-381.8 377.5749,-378.3001 377.5749,-385.3001"/>
</a>
</g>
</g>
</g>
</svg>
